<?xml version="1.0" encoding="UTF-8" standalone="no"?>
<!-- Created with Inkscape (http://www.inkscape.org/) -->

<svg
   xmlns:dc="http://purl.org/dc/elements/1.1/"
   xmlns:cc="http://creativecommons.org/ns#"
   xmlns:rdf="http://www.w3.org/1999/02/22-rdf-syntax-ns#"
   xmlns:svg="http://www.w3.org/2000/svg"
   xmlns="http://www.w3.org/2000/svg"
   xmlns:sodipodi="http://sodipodi.sourceforge.net/DTD/sodipodi-0.dtd"
   xmlns:inkscape="http://www.inkscape.org/namespaces/inkscape"
   width="975"
   height="200"
   id="svg2"
   version="1.1"
   inkscape:version="0.48.5 r10040"
   sodipodi:docname="flagsnbird.svg"
   inkscape:export-filename="/home/andreasn/Gnome/gnome-vs-groupon/images/birdnflags.png"
   inkscape:export-xdpi="90"
   inkscape:export-ydpi="90">
  <defs
     id="defs4" />
  <sodipodi:namedview
     id="base"
     pagecolor="#ffffff"
     bordercolor="#666666"
     borderopacity="1.0"
     inkscape:pageopacity="0.0"
     inkscape:pageshadow="2"
     inkscape:zoom="0.35355339"
     inkscape:cx="1167.545"
     inkscape:cy="-204.70238"
     inkscape:document-units="px"
     inkscape:current-layer="g4562"
     showgrid="false"
     inkscape:snap-nodes="false"
     inkscape:snap-bbox="true"
     inkscape:window-width="1920"
     inkscape:window-height="1014"
     inkscape:window-x="0"
     inkscape:window-y="27"
     inkscape:window-maximized="1"
     inkscape:snap-global="false"
     showborder="true"
     inkscape:showpageshadow="false">
    <inkscape:grid
       type="xygrid"
       id="grid6061"
       empspacing="5"
       visible="true"
       enabled="true"
       snapvisiblegridlinesonly="true" />
  </sodipodi:namedview>
  <metadata
     id="metadata7">
    <rdf:RDF>
      <cc:Work
         rdf:about="">
        <dc:format>image/svg+xml</dc:format>
        <dc:type
           rdf:resource="http://purl.org/dc/dcmitype/StillImage" />
        <dc:title></dc:title>
      </cc:Work>
    </rdf:RDF>
  </metadata>
  <g
     inkscape:label="Layer 1"
     inkscape:groupmode="layer"
     id="layer1"
     transform="translate(0,-852.36218)">
    <g
       transform="matrix(1.2190266,0,0,1.2190266,-342.79031,429.34851)"
       style="fill:#d3d7cf;fill-opacity:1"
       id="g4562"
       inkscape:export-filename="/home/andreasn/Gnome/mockup-gnome-groupon.png"
       inkscape:export-xdpi="90"
       inkscape:export-ydpi="90">
      <g
         id="g4542"
         transform="matrix(0.44698897,0,0,0.44698897,-133.0377,282.63469)"
         style="fill:#d3d7cf;fill-opacity:1">
        <path
           inkscape:connector-curvature="0"
           sodipodi:nodetypes="cccc"
           id="path4544"
           d="m 1120.3978,394.65802 c 47.5668,0.0631 30.9742,16.82833 78.2223,16.65844 -23.2359,21.73396 -51.1628,0.67115 -77.6142,16.60479 l -0.6081,-33.26323 z"
           style="fill:#d3d7cf;fill-opacity:1;stroke-width:1px" />
        <rect
           ry="1.2234854"
           rx="1.2234854"
           y="394.63882"
           x="1119.777"
           height="116.44444"
           width="1.3333334"
           id="rect4546"
           style="fill:#d3d7cf;fill-opacity:1;fill-rule:nonzero;stroke:none" />
      </g>
      <g
         id="g4548"
         transform="matrix(0.67366412,0,0,0.67366412,-472.71192,166.78481)"
         style="fill:#d3d7cf;fill-opacity:1">
        <path
           inkscape:connector-curvature="0"
           style="fill:#d3d7cf;fill-opacity:1;stroke-width:1px"
           d="m 1119.8644,394.65802 c 26.4674,14.21481 34.552,0.89601 68.2529,15.48557 -27.0477,5.0205 -40.607,18.8507 -67.6448,17.77766 l -0.6081,-33.26323 z"
           id="path4550"
           sodipodi:nodetypes="cccc" />
        <rect
           style="fill:#d3d7cf;fill-opacity:1;fill-rule:nonzero;stroke:none"
           id="rect4552"
           width="1.3333334"
           height="116.44444"
           x="1119.1392"
           y="394.63882"
           rx="0.81180584"
           ry="0.81180584" />
      </g>
      <g
         id="g4554"
         transform="matrix(0.99734051,0,0,0.99734051,-796.62041,1.3592184)"
         style="fill:#d3d7cf;fill-opacity:1">
        <path
           inkscape:connector-curvature="0"
           sodipodi:nodetypes="cccc"
           id="path4556"
           d="m 1147.6732,400.35613 c -1.0066,8.00751 -5.8125,16.42067 -0.097,21.93458 10.354,-0.17752 25.9845,-5.15214 30.9219,-7.73011 -9.6335,-1.85477 -25.014,-11.05683 -30.8253,-14.20447 z"
           style="fill:#d3d7cf;fill-opacity:1;stroke-width:1px" />
        <path
           inkscape:connector-curvature="0"
           style="fill:#d3d7cf;fill-opacity:1;stroke-width:1px"
           d="m 1119.8644,394.65802 c 23.8263,-0.85476 32.987,3.67849 32.987,3.67849 l -0.9909,17.89531 c -10.354,-0.17752 -14.7988,0.90676 -31.388,4.85375 l -0.6081,-26.42755 z"
           id="path4558"
           sodipodi:nodetypes="ccccc" />
        <rect
           style="fill:#d3d7cf;fill-opacity:1;fill-rule:nonzero;stroke:none"
           id="rect4560"
           width="1.3333334"
           height="116.44444"
           x="1119.1392"
           y="394.63882"
           rx="0.54834276"
           ry="0.54834276" />
      </g>
    </g>
    <g
       id="g10321"
       transform="translate(-293.15397,554.8634)"
       inkscape:export-filename="/home/andreasn/Gnome/mockup-gnome-groupon.png"
       inkscape:export-xdpi="90"
       inkscape:export-ydpi="90">
      <path
         style="fill:#d3d7cf;fill-opacity:1"
         d="m 1210.2941,450.2367 c 0.072,0.087 1.211,2.2187 2.5312,4.7188 7.6242,14.4374 11.4341,19.4602 16.0938,21.1875 3.3659,1.2478 7.7574,2.1273 10.75,2.1562 l 2.4687,0.031 -1.3125,1.125 c -4.3877,3.7478 -15.7921,8.3326 -22.4687,9.0313 l -2.3438,0.25 0.2188,1.75 c 0.367,3.2558 -1.5167,5.3327 -6,6.6562 -0.4869,0.1437 -0.887,0.2768 -1.25,0.4063 l -1.9688,0 c 0.4271,-0.28 1.5101,-0.7238 2.7813,-1.125 3.7471,-1.1826 5.2581,-2.4487 5.5625,-4.7188 0.3318,-2.4741 -0.2654,-3.2701 -2.9688,-3.875 -5.9406,-1.3295 -13.2297,-6.6285 -15.7812,-11.4687 -2.0879,-3.9609 -2.3945,-6.6309 -1.2813,-11.25 0.073,-0.3038 -1.5564,-1.4861 -3.7812,-2.75 -3.5964,-2.0432 -3.7995,-2.2444 -2.875,-2.5938 0.5506,-0.208 4.2203,-1.5304 8.1562,-2.9375 5.3988,-1.9302 7.9217,-3.0765 10.25,-4.6562 1.6973,-1.1516 3.1465,-2.0243 3.2188,-1.9375 z"
         id="path3000"
         inkscape:connector-curvature="0"
         sodipodi:nodetypes="ccccccccccccccccccccscc" />
    </g>
  </g>
</svg>
